# xmcd
#
# Track frame offsets:
#	150
#	28129
#	46557
#	65405
#	81246
#	99392
#	117811
#	141588
#	156361
#	186376
#
# Disc length: 2692 seconds
#
# Revision: 1
# Processed by: cddbd v1.5PL3 Copyright (c) Steve Scherf et al.
# Submitted via: EasyCDDAExtractor 7.0.5.1
#
DISCID=870a820a
DTITLE=Pancho Barraza
DYEAR=1900
DGENRE=
TTITLE0=Mi Enemigo El Amor
TTITLE1=Al Final De Tu Camino
TTITLE2=Una Tarde Como Cualquiera
TTITLE3=Ignoraste Mis Lagrimas
TTITLE4=Donde Andara
TTITLE5=Inventame Un Amor
TTITLE6=Formas De Vivir
TTITLE7=Mis Canciones De Amor
TTITLE8=Musica Romantica
TTITLE9=Mi Amor Y Mi Agonia
EXTD=
EXTT0=
EXTT1=
EXTT2=
EXTT3=
EXTT4=
EXTT5=
EXTT6=
EXTT7=
EXTT8=
EXTT9=
PLAYORDER=
